<svg xmlns="http://www.w3.org/2000/svg" width="12" height="12" viewBox="0 0 12 12" fill="none">
  <path d="M9.54336 0.00613373C11.6572 -0.140775 12.788 2.38552 11.3679 3.90653L4.06451 11.2012C2.92719 11.5258 1.736 11.7046 0.582128 11.9888C0.306647 12.0454 0.0477091 11.8831 0 11.6042C0.204688 10.4094 0.497868 9.21948 0.746802 8.02959C3.12803 5.51945 5.64468 3.11622 8.07708 0.646457C8.50069 0.276877 8.97316 0.0457453 9.54336 0.00613373ZM9.57184 0.929122C9.29866 0.952581 9.02587 1.06642 8.81388 1.23871C8.57956 1.42907 7.98012 2.0144 7.80198 2.24669C7.78544 2.26822 7.75504 2.28092 7.76158 2.31553L9.70727 4.26572C10.349 3.55348 11.3694 2.97239 10.9996 1.8498C10.803 1.25371 10.1936 0.875665 9.57145 0.929122H9.57184ZM1.06538 10.9289L3.56202 10.3821L9.01664 4.95835L7.08173 2.96893L1.61288 8.4334L1.06538 10.9289Z" fill="currentColor"/>
</svg>