<svg class="icon icon-cart" xmlns="http://www.w3.org/2000/svg" width="22" height="22" viewBox="0 0 22 22" fill="none">
  <path d="M8.8001 21.9996C7.587 21.9996 6.6001 21.0127 6.6001 19.7996C6.6001 18.5865 7.587 17.5996 8.8001 17.5996C10.0132 17.5996 11.0001 18.5865 11.0001 19.7996C11.0001 21.0127 10.0132 21.9996 8.8001 21.9996ZM8.8001 18.6996C8.19355 18.6996 7.7001 19.1931 7.7001 19.7996C7.7001 20.4062 8.19355 20.8996 8.8001 20.8996C9.40664 20.8996 9.9001 20.4062 9.9001 19.7996C9.9001 19.1931 9.40664 18.6996 8.8001 18.6996Z" fill="currentColor"/>
  <path d="M16.5 21.9996C15.287 21.9996 14.3 21.0127 14.3 19.7996C14.3 18.5865 15.287 17.5996 16.5 17.5996C17.7131 17.5996 18.7 18.5865 18.7 19.7996C18.7 21.0127 17.7131 21.9996 16.5 21.9996ZM16.5 18.6996C15.8935 18.6996 15.4 19.1931 15.4 19.7996C15.4 20.4062 15.8935 20.8996 16.5 20.8996C17.1066 20.8996 17.6 20.4062 17.6 19.7996C17.6 19.1931 17.1066 18.6996 16.5 18.6996Z" fill="currentColor"/>
  <path d="M19.2935 4.91244C19.0173 4.58628 18.6005 4.39922 18.1501 4.39922H4.6827L4.57346 3.74382C4.42908 2.87767 3.62819 2.19922 2.7501 2.19922H1.6501C1.34635 2.19922 1.1001 2.44547 1.1001 2.74922C1.1001 3.05296 1.34635 3.29922 1.6501 3.29922H2.7501C3.08788 3.29922 3.43289 3.59147 3.48843 3.92467L5.32676 14.9546C5.47109 15.8208 6.27201 16.4992 7.15008 16.4992H18.1501C18.4538 16.4992 18.7001 16.253 18.7001 15.9492C18.7001 15.6455 18.4538 15.3992 18.1501 15.3992H7.15008C6.8123 15.3992 6.46728 15.107 6.41174 14.7738L6.1404 13.1456L17.1019 12.1925C17.9546 12.1183 18.7327 11.3989 18.8734 10.5546L19.6117 6.12467C19.6858 5.68044 19.5698 5.23859 19.2935 4.91244ZM18.5267 5.94382L17.7884 10.3738C17.7304 10.7215 17.3578 11.066 17.0066 11.0966L5.95903 12.0573L4.86603 5.49924H18.1501C18.2783 5.49924 18.3863 5.54337 18.4542 5.62346C18.5221 5.7036 18.5478 5.81734 18.5268 5.94384L18.5267 5.94382Z" fill="currentColor"/>
</svg>