<svg class="icon icon-trash" xmlns="http://www.w3.org/2000/svg" width="512" height="512" viewBox="0 0 12 12" fill="none">
  <g clip-path="url(#clip0_1_6712)">
    <path d="M10.2188 1.40625H8.46094V1.05469C8.46094 0.473133 7.9878 0 7.40625 0H4.59375C4.0122 0 3.53906 0.473133 3.53906 1.05469V1.40625H1.78125C1.1997 1.40625 0.726562 1.87938 0.726562 2.46094C0.726562 2.928 1.03184 3.32487 1.45324 3.46315L2.08031 11.0329C2.12548 11.5752 2.58715 12 3.13134 12H8.86866C9.41288 12 9.87455 11.5752 9.91973 11.0327L10.5468 3.46312C10.9682 3.32487 11.2734 2.928 11.2734 2.46094C11.2734 1.87938 10.8003 1.40625 10.2188 1.40625ZM4.24219 1.05469C4.24219 0.860836 4.3999 0.703125 4.59375 0.703125H7.40625C7.6001 0.703125 7.75781 0.860836 7.75781 1.05469V1.40625H4.24219V1.05469ZM9.219 10.9745C9.20393 11.1553 9.05006 11.2969 8.86866 11.2969H3.13134C2.94996 11.2969 2.79607 11.1553 2.78105 10.9747L2.16314 3.51562H9.83686L9.219 10.9745ZM10.2188 2.8125H1.78125C1.5874 2.8125 1.42969 2.65479 1.42969 2.46094C1.42969 2.26709 1.5874 2.10938 1.78125 2.10938H10.2188C10.4126 2.10938 10.5703 2.26709 10.5703 2.46094C10.5703 2.65479 10.4126 2.8125 10.2188 2.8125Z" fill="black" fill-opacity="0.5"/>
    <path d="M4.5931 10.2204L4.24154 4.54857C4.22951 4.35477 4.06177 4.20737 3.8689 4.21944C3.6751 4.23146 3.52775 4.39829 3.53975 4.59207L3.89131 10.264C3.90286 10.4504 4.05764 10.5938 4.24186 10.5938C4.44547 10.5938 4.60559 10.4223 4.5931 10.2204Z" fill="black" fill-opacity="0.5"/>
    <path d="M5.99968 4.21875C5.8057 4.21875 5.64844 4.37616 5.64844 4.57031V10.2422C5.64844 10.4363 5.8057 10.5938 5.99968 10.5938C6.19366 10.5938 6.35092 10.4363 6.35092 10.2422V4.57031C6.35092 4.37616 6.19366 4.21875 5.99968 4.21875Z" fill="black" fill-opacity="0.5"/>
    <path d="M8.13113 4.21944C7.93777 4.20741 7.77049 4.35476 7.75849 4.54857L7.40693 10.2204C7.39495 10.4142 7.54231 10.5811 7.73609 10.5931C7.92999 10.6051 8.09672 10.4577 8.10872 10.2639L8.46028 4.59207C8.47228 4.39826 8.32493 4.23144 8.13113 4.21944Z" fill="black" fill-opacity="0.5"/>
  </g>
  <defs>
    <clipPath id="clip0_1_6712">
      <rect width="12" height="12" fill="white"/>
    </clipPath>
  </defs>
</svg>