<svg xmlns="http://www.w3.org/2000/svg" width="22" height="22" viewBox="0 0 22 22" fill="none">
  <path d="M20.8184 19.5809L15.7566 14.5191C17.0113 12.9895 17.7676 11.0301 17.7676 8.89453C17.7676 3.99609 13.793 0.0214844 8.89453 0.0214844C3.9918 0.0214844 0.0214844 3.99609 0.0214844 8.89453C0.0214844 13.793 3.9918 17.7676 8.89453 17.7676C11.0301 17.7676 12.9852 17.0156 14.5148 15.7609L19.5766 20.8184C19.9203 21.1621 20.4746 21.1621 20.8184 20.8184C21.1621 20.4789 21.1621 19.9203 20.8184 19.5809ZM8.89453 16.0016C4.97148 16.0016 1.7832 12.8133 1.7832 8.89453C1.7832 4.97578 4.97148 1.7832 8.89453 1.7832C12.8133 1.7832 16.0059 4.97578 16.0059 8.89453C16.0059 12.8133 12.8133 16.0016 8.89453 16.0016Z" fill="currentColor" stroke="currentColor" stroke-width="0.0429688"/>
</svg>