<svg class="icon icon-account" xmlns="http://www.w3.org/2000/svg" width="23" height="23" viewBox="0 0 23 23" fill="none">
  <path d="M11.5 21.5625C17.0574 21.5625 21.5625 17.0574 21.5625 11.5C21.5625 5.94263 17.0574 1.4375 11.5 1.4375C5.94263 1.4375 1.4375 5.94263 1.4375 11.5C1.4375 17.0574 5.94263 21.5625 11.5 21.5625Z" stroke="currentColor" stroke-width="1.4375" stroke-miterlimit="10" stroke-linecap="round" stroke-linejoin="round"/>
  <path d="M11.5 12.9375C13.4848 12.9375 15.0938 11.3285 15.0938 9.34375C15.0938 7.35898 13.4848 5.75 11.5 5.75C9.51523 5.75 7.90625 7.35898 7.90625 9.34375C7.90625 11.3285 9.51523 12.9375 11.5 12.9375Z" stroke="currentColor" stroke-width="1.4375" stroke-miterlimit="10" stroke-linecap="round" stroke-linejoin="round"/>
  <path d="M3.88135 18.041C5.1751 15.0941 8.0501 13.0098 11.5001 13.0098C14.9501 13.0098 17.897 15.0941 19.1188 18.041" stroke="currentColor" stroke-width="1.4375" stroke-miterlimit="10" stroke-linecap="round" stroke-linejoin="round"/>
</svg>